<svg width="537" height="485" viewBox="0 0 537 485" fill="none" xmlns="http://www.w3.org/2000/svg">
<path d="M536.869 362.049V439.176C536.869 445.143 532.033 449.979 526.066 449.979H337.893V362.049C337.893 335.996 359.013 314.876 385.066 314.876H489.696C515.748 314.876 536.869 335.996 536.869 362.049Z" fill="#EB5777"/>
<path d="M412.417 363.982V449.979H337.893V362.049C337.893 335.994 359.011 314.876 385.066 314.876H394.096C405.514 328.054 412.417 345.23 412.417 363.982Z" fill="#CE3F63"/>
<path d="M438.508 341.436C429.627 341.436 422.428 334.236 422.428 325.355V280.245H454.589V325.355C454.589 334.236 447.39 341.436 438.508 341.436Z" fill="#E39F6E"/>
<path d="M353.434 217.34H523.583L528.071 195.451C539.694 138.757 496.381 85.6662 438.51 85.6662C380.637 85.6662 337.325 138.757 348.948 195.451L353.434 217.34Z" fill="#BA6F3C"/>
<path d="M511.422 247.558C523.379 247.558 533.073 237.865 533.073 225.907C533.073 213.95 523.379 204.257 511.422 204.257C499.464 204.257 489.771 213.95 489.771 225.907C489.771 237.865 499.464 247.558 511.422 247.558Z" fill="#E39F6E"/>
<path d="M387.243 225.909C387.243 237.864 377.557 247.561 365.591 247.561C353.636 247.561 343.939 237.864 343.939 225.909C343.939 224.083 344.16 222.301 344.603 220.607C346.961 211.22 355.462 204.258 365.591 204.258C375.852 204.258 384.442 211.397 386.667 220.973C387.044 222.555 387.243 224.216 387.243 225.909Z" fill="#E39F6E"/>
<path d="M386.667 220.973C380.557 224.482 373.483 226.485 365.945 226.485C358.152 226.485 350.857 224.338 344.604 220.607C346.962 211.22 355.463 204.258 365.592 204.258C375.852 204.258 384.442 211.397 386.667 220.973Z" fill="#D88852"/>
<path d="M370.365 165.352L377.79 224.77L380.601 247.308C384.254 276.509 409.082 298.427 438.505 298.427C467.939 298.427 492.768 276.509 496.41 247.308L506.646 165.352H370.365Z" fill="#F8C298"/>
<path d="M407.743 184.687C407.743 203.627 395.08 219.656 377.79 224.77L369.831 161.076H400.427C405.042 167.806 407.743 175.931 407.743 184.687Z" fill="#E39F6E"/>
<path d="M406.812 232.769C402.44 232.769 398.838 229.287 398.718 224.889L398.624 221.457C398.501 216.984 402.028 213.26 406.501 213.137C410.978 212.998 414.699 216.541 414.821 221.014L414.916 224.446C415.038 228.919 411.512 232.643 407.039 232.766C406.962 232.768 406.887 232.769 406.812 232.769Z" fill="#AA5B26"/>
<path d="M470.291 232.769C465.919 232.769 462.316 229.287 462.197 224.889L462.102 221.457C461.98 216.984 465.506 213.26 469.979 213.137C474.457 212.998 478.177 216.541 478.3 221.014L478.394 224.446C478.517 228.919 474.99 232.643 470.517 232.766C470.441 232.768 470.365 232.769 470.291 232.769Z" fill="#AA5B26"/>
<path d="M438.508 263.185C428.31 263.185 418.644 258.245 412.653 249.97C410.028 246.346 410.84 241.281 414.463 238.656C418.089 236.032 423.152 236.844 425.777 240.466C428.731 244.546 433.49 246.981 438.508 246.981C443.527 246.981 448.287 244.546 451.241 240.466C453.866 236.842 458.93 236.032 462.555 238.656C466.179 241.281 466.99 246.346 464.365 249.97C458.373 258.245 448.707 263.185 438.508 263.185Z" fill="#E39F6E"/>
<path d="M376.317 458.08C371.842 458.08 368.215 454.453 368.215 449.979V376.334C368.215 371.86 371.842 368.233 376.317 368.233C380.791 368.233 384.418 371.86 384.418 376.334V449.979C384.419 454.452 380.791 458.08 376.317 458.08Z" fill="black"/>
<path d="M506.537 376.329V449.979H490.333V376.329C490.333 371.857 493.962 368.228 498.434 368.228C502.917 368.228 506.537 371.857 506.537 376.329Z" fill="#CE3F63"/>
<path d="M357.631 167.035C357.631 167.035 372.159 181.446 411.28 182.487C413.754 182.553 415.785 180.562 415.785 178.088V172.285C415.785 172.285 430.008 181.618 460.149 182.483C462.624 182.554 464.654 180.56 464.654 178.084V174.792C464.654 174.792 476.374 181.946 511.508 182.511C513.958 182.551 515.965 180.563 515.965 178.112V156.752C515.965 153.955 513.698 151.69 510.903 151.69H372.978C364.502 151.69 357.631 158.56 357.631 167.035Z" fill="#BA6F3C"/>
<path d="M411.356 190.589C411.245 190.589 411.134 190.587 411.023 190.584C385.542 189.901 369.5 183.814 360.529 178.829C356.618 176.655 355.21 171.722 357.384 167.811C359.558 163.901 364.49 162.494 368.401 164.666C374.116 167.842 386.605 173.135 407.683 174.238V172.283C407.683 169.306 409.315 166.569 411.936 165.154C414.556 163.739 417.74 163.877 420.229 165.51C420.295 165.551 432.132 172.85 456.569 174.222C456.746 171.448 458.225 168.879 460.693 167.559C463.304 166.163 466.33 166.215 468.804 167.829C469.772 168.326 480.575 173.54 508.509 174.34C512.981 174.468 516.503 178.197 516.375 182.671C516.246 187.143 512.511 190.659 508.044 190.537C489.741 190.013 477.685 187.702 470.268 185.566C469.876 186.086 469.441 186.58 468.965 187.043C466.551 189.388 463.235 190.669 459.874 190.579C442.831 190.085 430.373 186.978 422.345 184.113C421.756 185.179 421.007 186.162 420.108 187.037C417.779 189.306 414.605 190.589 411.356 190.589Z" fill="#AA5B26"/>
<path d="M198.976 362.049V449.979H10.8024C4.83601 449.979 0 445.143 0 439.176V362.049C0 335.996 21.1203 314.876 47.1731 314.876H151.803C177.857 314.876 198.976 335.996 198.976 362.049Z" fill="#4FCEB7"/>
<path d="M198.976 362.049V449.979H124.452V363.982C124.452 345.23 131.355 328.054 142.772 314.876H151.803C177.858 314.876 198.976 335.994 198.976 362.049Z" fill="#3DB4A0"/>
<path d="M100.621 341.436C91.7395 341.436 84.54 334.236 84.54 325.355V280.245H116.702V325.355C116.702 334.236 109.502 341.436 100.621 341.436Z" fill="#E39F6E"/>
<path d="M15.5461 217.34H185.696L190.184 195.451C201.806 138.757 158.494 85.6662 100.622 85.6662C42.7492 85.6662 -0.562025 138.757 11.0603 195.451L15.5461 217.34Z" fill="#BA6F3C"/>
<path d="M195.187 225.91C195.187 237.864 185.49 247.561 173.535 247.561C161.581 247.561 151.884 237.864 151.884 225.91C151.884 224.083 152.105 222.301 152.547 220.607C154.905 211.22 163.406 204.258 173.535 204.258C183.797 204.258 192.398 211.397 194.612 220.983C194.988 222.567 195.187 224.216 195.187 225.91Z" fill="#E39F6E"/>
<path d="M194.612 220.983C188.502 224.481 181.428 226.485 173.9 226.485C166.107 226.485 158.802 224.338 152.547 220.607C154.905 211.22 163.406 204.258 173.535 204.258C183.798 204.258 192.398 211.397 194.612 220.983Z" fill="#D88852"/>
<path d="M27.7075 247.558C39.6649 247.558 49.3584 237.865 49.3584 225.907C49.3584 213.95 39.6649 204.257 27.7075 204.257C15.75 204.257 6.05655 213.95 6.05655 225.907C6.05655 237.865 15.75 247.558 27.7075 247.558Z" fill="#E39F6E"/>
<path d="M32.4806 165.352L42.7167 247.308C46.3699 276.509 71.1875 298.427 100.621 298.427C130.054 298.427 154.872 276.509 158.525 247.308L161.37 224.57L168.762 165.352H32.4806Z" fill="#F8C298"/>
<path d="M136.862 165.352C133.828 171.141 132.102 177.713 132.102 184.688C132.102 203.374 144.423 219.235 161.37 224.572L168.762 165.353H136.862V165.352Z" fill="#E39F6E"/>
<path d="M68.9247 232.769C64.5522 232.769 60.9503 229.287 60.8308 224.889L60.7364 221.457C60.6137 216.984 64.1401 213.26 68.6133 213.137C73.1043 212.998 76.811 216.541 76.9337 221.014L77.0281 224.446C77.1508 228.919 73.6244 232.643 69.1512 232.766C69.0747 232.768 68.9992 232.769 68.9247 232.769Z" fill="#AA5B26"/>
<path d="M132.403 232.769C128.031 232.769 124.429 229.287 124.309 224.889L124.215 221.457C124.092 216.984 127.619 213.26 132.092 213.137C136.584 212.998 140.289 216.541 140.412 221.014L140.506 224.446C140.629 228.919 137.103 232.643 132.63 232.766C132.553 232.768 132.478 232.769 132.403 232.769Z" fill="#AA5B26"/>
<path d="M100.621 263.185C90.4225 263.185 80.7557 258.245 74.7642 249.97C72.1396 246.346 72.9512 241.281 76.574 238.656C80.2 236.032 85.2635 236.844 87.8881 240.466C90.842 244.546 95.6025 246.981 100.621 246.981C105.639 246.981 110.399 244.546 113.353 240.466C115.977 236.842 121.041 236.032 124.667 238.656C128.291 241.281 129.101 246.346 126.477 249.97C120.485 258.245 110.819 263.185 100.621 263.185Z" fill="#E39F6E"/>
<path d="M46.5356 376.329V449.979H30.3331V376.329C30.3331 371.857 33.9517 368.228 38.4343 368.228C42.9065 368.228 46.5356 371.857 46.5356 376.329Z" fill="#3DB4A0"/>
<path d="M160.552 458.08C156.078 458.08 152.451 454.453 152.451 449.979V376.334C152.451 371.86 156.078 368.233 160.552 368.233C165.026 368.233 168.653 371.86 168.653 376.334V449.979C168.653 454.452 165.026 458.08 160.552 458.08Z" fill="black"/>
<path d="M19.7446 167.035C19.7446 167.035 34.2726 181.446 73.3937 182.487C75.8673 182.553 77.8984 180.562 77.8984 178.088V172.285C77.8984 172.285 92.1212 181.618 122.262 182.483C124.737 182.554 126.767 180.56 126.767 178.084V174.792C126.767 174.792 138.488 181.946 173.621 182.511C176.072 182.551 178.079 180.563 178.079 178.112V156.752C178.079 153.955 175.812 151.69 173.016 151.69H35.0905C26.6148 151.69 19.7446 158.56 19.7446 167.035Z" fill="#BA6F3C"/>
<path d="M173.597 190.613C173.552 190.613 173.508 190.611 173.463 190.611C153.289 190.285 140.233 187.83 132.38 185.568C131.989 186.087 131.555 186.581 131.079 187.043C128.666 189.387 125.35 190.673 121.988 190.579C104.943 190.085 92.4851 186.978 84.4572 184.113C83.869 185.179 83.1192 186.162 82.2206 187.038C79.812 189.383 76.4923 190.684 73.1368 190.584C50.451 189.976 35.3914 184.998 26.7533 180.93C22.7047 179.024 20.9693 174.197 22.8756 170.149C24.7809 166.1 29.6106 164.366 33.6571 166.271C40.4245 169.458 52.0574 173.315 69.7971 174.238V172.283C69.7971 169.306 71.4298 166.569 74.0501 165.154C76.6695 163.739 79.855 163.877 82.3433 165.51C82.4093 165.551 94.2467 172.85 118.684 174.222C118.862 171.448 120.339 168.879 122.808 167.559C125.418 166.162 128.445 166.215 130.917 167.829C131.92 168.343 143.481 173.919 173.727 174.41C178.202 174.482 181.769 178.168 181.696 182.642C181.623 187.071 178.011 190.613 173.597 190.613Z" fill="#AA5B26"/>
<path d="M399.454 363.982V468.968C399.454 474.935 394.618 479.771 388.652 479.771H148.217C142.25 479.771 137.414 474.935 137.414 468.968V363.982C137.414 329.664 165.23 301.848 199.538 301.848H337.331C371.639 301.848 399.454 329.664 399.454 363.982Z" fill="#A9D2F7"/>
<path d="M188.021 335.471V352.127C188.021 355.993 191.156 359.127 195.022 359.127C199.685 359.127 203.044 363.602 201.744 368.08L196.113 387.466C195.501 389.574 195.913 391.846 197.226 393.605L223.697 429.075V301.85L190.484 330.143C188.921 331.471 188.021 333.42 188.021 335.471Z" fill="#5F9EEB"/>
<path d="M351.824 335.471V352.127C351.824 355.993 348.69 359.127 344.824 359.127C340.161 359.127 336.801 363.602 338.101 368.08L343.732 387.466C344.345 389.574 343.933 391.846 342.62 393.605L316.149 429.075V301.85L349.362 330.143C350.924 331.471 351.824 333.42 351.824 335.471Z" fill="#5F9EEB"/>
<path d="M316.151 301.848H223.695V479.775H316.151V301.848Z" fill="#627687"/>
<path d="M399.453 363.969V468.969C399.453 474.936 394.617 479.772 388.651 479.772H378.283V363.98C378.283 329.672 350.459 301.848 316.151 301.848H337.332C371.641 301.848 399.453 329.66 399.453 363.969Z" fill="#7FB7EA"/>
<path d="M269.923 336.833C258.228 336.833 248.746 327.351 248.746 315.656V256.249H291.101V315.656C291.1 327.351 281.619 336.833 269.923 336.833Z" fill="#F8C298"/>
<path d="M157.886 173.405H381.96L387.87 144.578C403.176 69.9177 346.137 0 269.923 0C193.709 0 136.671 69.9177 151.977 144.579L157.886 173.405Z" fill="#FFCF64"/>
<path d="M376.437 104.851C371.963 104.851 368.336 108.478 368.336 112.952V130.335C362.003 130.224 352.563 129.698 341.71 127.927V144.302C353.372 146.057 363.297 146.503 369.672 146.557C369.716 146.558 369.759 146.558 369.802 146.558C373.715 146.558 377.396 145.044 380.177 142.286C382.991 139.497 384.54 135.777 384.54 131.814V112.952C384.54 108.478 380.913 104.851 376.437 104.851Z" fill="#EFC40F"/>
<path d="M164.763 104.851C169.237 104.851 172.864 108.478 172.864 112.952V130.335C179.198 130.224 188.637 129.698 199.491 127.927V144.302C187.829 146.057 177.904 146.503 171.528 146.557C171.484 146.558 171.441 146.558 171.398 146.558C167.485 146.558 163.805 145.044 161.023 142.286C158.21 139.497 156.661 135.777 156.661 131.814V112.952C156.662 108.478 160.289 104.851 164.763 104.851Z" fill="#EFC40F"/>
<path d="M365.945 213.202C381.692 213.202 394.458 200.436 394.458 184.689C394.458 168.942 381.692 156.176 365.945 156.176C350.198 156.176 337.432 168.942 337.432 184.689C337.432 200.436 350.198 213.202 365.945 213.202Z" fill="#F8C298"/>
<path d="M173.9 213.202C189.648 213.202 202.413 200.436 202.413 184.689C202.413 168.942 189.648 156.176 173.9 156.176C158.153 156.176 145.388 168.942 145.388 184.689C145.388 200.436 158.153 213.202 173.9 213.202Z" fill="#F8C298"/>
<path d="M184.864 142.38L193.668 212.865C198.472 251.325 231.164 280.188 269.922 280.188C308.681 280.188 341.373 251.325 346.176 212.865L354.98 142.38C357.612 121.309 341.182 102.699 319.948 102.699H219.896C198.662 102.699 182.232 121.309 184.864 142.38Z" fill="#FFD6C0"/>
<path d="M228.183 191.158C223.811 191.158 220.208 187.675 220.089 183.278L219.965 178.758C219.842 174.285 223.369 170.561 227.842 170.438C232.284 170.308 236.04 173.842 236.162 178.315L236.286 182.834C236.409 187.307 232.883 191.032 228.409 191.155C228.334 191.157 228.258 191.158 228.183 191.158Z" fill="#4FCEB7"/>
<path d="M311.779 191.158C307.408 191.158 303.805 187.675 303.685 183.278L303.561 178.758C303.439 174.285 306.965 170.561 311.438 170.438C315.874 170.308 319.636 173.842 319.759 178.315L319.883 182.834C320.005 187.307 316.479 191.032 312.006 191.155C311.929 191.157 311.854 191.158 311.779 191.158Z" fill="#4FCEB7"/>
<path d="M269.923 231.213C257.313 231.213 245.362 225.104 237.952 214.871C235.328 211.247 236.139 206.182 239.763 203.558C243.388 200.935 248.453 201.745 251.076 205.369C255.448 211.407 262.493 215.011 269.923 215.011C277.355 215.011 284.4 211.407 288.77 205.369C291.394 201.744 296.46 200.934 300.083 203.558C303.707 206.183 304.518 211.247 301.894 214.871C294.486 225.104 282.533 231.213 269.923 231.213Z" fill="#F8C298"/>
<path d="M196.125 415.703V479.771H179.921V415.703C179.921 411.231 183.55 407.602 188.023 407.602C192.495 407.602 196.125 411.231 196.125 415.703Z" fill="#7FB7EA"/>
<path d="M356.947 415.703V479.771H340.744V415.703C340.744 411.231 344.373 407.602 348.845 407.602C353.318 407.602 356.947 411.231 356.947 415.703Z" fill="#7FB7EA"/>
<path d="M172.877 90.6322V128.801C172.877 132.494 175.881 135.475 179.574 135.444C196.965 135.295 238.957 132.264 270.607 108.378C302.257 132.263 344.249 135.295 361.64 135.444C365.332 135.475 368.337 132.494 368.337 128.801V90.6322H172.877V90.6322Z" fill="#FFCF64"/>
<path d="M269.5 15C131.704 15 20 120.212 20 250C20 379.788 131.704 485 269.5 485C407.296 485 519 379.788 519 250C519 120.212 407.296 15 269.5 15ZM52.1936 250C52.1936 198.937 72.0892 152.278 104.927 116.429L411.313 405.009C373.244 435.93 323.714 454.677 269.5 454.677C149.482 454.677 52.1936 363.043 52.1936 250ZM434.073 383.571L127.687 94.991C165.748 64.0695 215.278 45.3226 269.5 45.3226C389.518 45.3226 486.806 136.957 486.806 250C486.806 301.063 466.903 347.722 434.073 383.571Z" fill="#AA494A"/>
</svg>
